{
  "accessors": [
    {
      "bufferView": 2,
      "componentType": 5126,
      "count": 148,
      "max": [
        6.115447998046875,
        81.21519470214844,
        67.70407104492188
      ],
      "min": [
        0.9999852180480957,
        -81.2152099609375,
        -67.70404052734375
      ],
      "type": "VEC3"
    },
    {
      "bufferView": 2,
      "byteOffset": 1776,
      "componentType": 5126,
      "count": 148,
      "max": [
        0.999225914478302,
        0.9494651556015015,
        0.9494651556015015
      ],
      "min": [
        -1.0,
        -0.9494651556015015,
        -0.9494651556015015
      ],
      "type": "VEC3"
    },
    {
      "bufferView": 3,
      "componentType": 5126,
      "count": 148,
      "max": [
        0.0,
        1.0,
        1.0,
        1.0
      ],
      "min": [
        0.0,
        -1.0,
        -1.0,
        -1.0
      ],
      "type": "VEC4"
    },
    {
      "bufferView": 1,
      "componentType": 5126,
      "count": 148,
      "max": [
        1.2509765625,
        0.810791015625
      ],
      "min": [
        -0.95166015625,
        0.005859375
      ],
      "type": "VEC2"
    },
    {
      "bufferView": 1,
      "byteOffset": 1184,
      "componentType": 5126,
      "count": 148,
      "max": [
        0.8984375,
        0.9921875
      ],
      "min": [
        0.0078125,
        0.021484375
      ],
      "type": "VEC2"
    },
    {
      "bufferView": 1,
      "byteOffset": 2368,
      "componentType": 5126,
      "count": 148,
      "max": [
        1.2509765625,
        0.810791015625
      ],
      "min": [
        -0.95166015625,
        0.005859375
      ],
      "type": "VEC2"
    },
    {
      "bufferView": 0,
      "componentType": 5125,
      "count": 342,
      "type": "SCALAR"
    },
    {
      "bufferView": 2,
      "byteOffset": 3552,
      "componentType": 5126,
      "count": 4,
      "max": [
        1.8280572891235352,
        58.0111083984375,
        44.50003433227539
      ],
      "min": [
        1.8280400037765503,
        -58.010986328125,
        -44.49998474121094
      ],
      "type": "VEC3"
    },
    {
      "bufferView": 2,
      "byteOffset": 3600,
      "componentType": 5126,
      "count": 4,
      "max": [
        1.0,
        -0.0,
        0.0
      ],
      "min": [
        1.0,
        -0.0,
        0.0
      ],
      "type": "VEC3"
    },
    {
      "bufferView": 1,
      "byteOffset": 3552,
      "componentType": 5126,
      "count": 4,
      "max": [
        1.0,
        1.0
      ],
      "min": [
        0.0,
        0.0
      ],
      "type": "VEC2"
    },
    {
      "bufferView": 1,
      "byteOffset": 3584,
      "componentType": 5126,
      "count": 4,
      "max": [
        0.397705078125,
        0.6640625
      ],
      "min": [
        0.0078125,
        0.365234375
      ],
      "type": "VEC2"
    },
    {
      "bufferView": 1,
      "byteOffset": 3616,
      "componentType": 5126,
      "count": 4,
      "max": [
        1.0,
        1.0
      ],
      "min": [
        0.0,
        0.0
      ],
      "type": "VEC2"
    },
    {
      "bufferView": 0,
      "byteOffset": 1368,
      "componentType": 5125,
      "count": 6,
      "type": "SCALAR"
    }
  ],
  "asset": {
    "extras": {
      "author": "sciencevr (https://sketchfab.com/sciencevr)",
      "license": "CC-BY-4.0 (http://creativecommons.org/licenses/by/4.0/)",
      "source": "https://sketchfab.com/3d-models/painting-frame-e63efbbfd02b4fc5b7c03553bc2ea551",
      "title": "Painting Frame"
    },
    "generator": "Sketchfab-12.68.0",
    "version": "2.0"
  },
  "bufferViews": [
    {
      "buffer": 0,
      "byteLength": 1392,
      "name": "floatBufferViews",
      "target": 34963
    },
    {
      "buffer": 0,
      "byteLength": 3648,
      "byteOffset": 1392,
      "byteStride": 8,
      "name": "floatBufferViews",
      "target": 34962
    },
    {
      "buffer": 0,
      "byteLength": 3648,
      "byteOffset": 5040,
      "byteStride": 12,
      "name": "floatBufferViews",
      "target": 34962
    },
    {
      "buffer": 0,
      "byteLength": 2368,
      "byteOffset": 8688,
      "byteStride": 16,
      "name": "floatBufferViews",
      "target": 34962
    }
  ],
  "buffers": [
    {
      "byteLength": 11056,
      "uri": "scene.bin"
    }
  ],
  "images": [
    {
      "uri": "textures/M_FrameWood_baseColor.jpeg"
    },
    {
      "uri": "textures/M_FrameWood_metallicRoughness.png"
    },
    {
      "uri": "textures/M_FrameWood_normal.jpeg"
    }
  ],
  "materials": [
    {
      "doubleSided": true,
      "name": "M_FrameWood",
      "normalTexture": {
        "index": 2
      },
      "pbrMetallicRoughness": {
        "baseColorTexture": {
          "index": 0
        },
        "metallicFactor": 0.9076558500386092,
        "metallicRoughnessTexture": {
          "index": 1
        },
        "roughnessFactor": 0.2570773215621181
      }
    },
    {
      "doubleSided": true,
      "name": "M_PaintingB",
      "pbrMetallicRoughness": {
        "baseColorFactor": [
          0.8,
          0.8,
          0.8,
          1.0
        ],
        "metallicFactor": 0.0,
        "roughnessFactor": 0.9577051494623774
      }
    }
  ],
  "meshes": [
    {
      "name": "SM_PaintingMilton_M_FrameWood_0",
      "primitives": [
        {
          "attributes": {
            "NORMAL": 1,
            "POSITION": 0,
            "TANGENT": 2,
            "TEXCOORD_0": 3,
            "TEXCOORD_1": 4,
            "TEXCOORD_2": 5
          },
          "indices": 6,
          "material": 0,
          "mode": 4
        }
      ]
    },
    {
      "name": "SM_PaintingMilton_M_PaintingB_0",
      "primitives": [
        {
          "attributes": {
            "NORMAL": 8,
            "POSITION": 7,
            "TEXCOORD_0": 9,
            "TEXCOORD_1": 10,
            "TEXCOORD_2": 11
          },
          "indices": 12,
          "material": 1,
          "mode": 4
        }
      ]
    }
  ],
  "nodes": [
    {
      "children": [
        1
      ],
      "matrix": [
        2.220446049250313e-16,
        -2.220446049250313e-16,
        1.0,
        0.0,
        1.0,
        4.930380657631324e-32,
        -2.220446049250313e-16,
        0.0,
        0.0,
        1.0,
        2.220446049250313e-16,
        0.0,
        3.5577456951141357,
        7.899630436418578e-16,
        -3.5576772689819336,
        1.0
      ],
      "name": "Sketchfab_model"
    },
    {
      "children": [
        2
      ],
      "matrix": [
        1.0,
        0.0,
        0.0,
        0.0,
        0.0,
        -1.0,
        0.0,
        0.0,
        0.0,
        0.0,
        -1.0,
        0.0,
        0.0,
        0.0,
        0.0,
        1.0
      ],
      "name": "6637f028cb7b4690bb1ee56afa5f559d.fbx"
    },
    {
      "children": [
        3
      ],
      "name": "RootNode"
    },
    {
      "children": [
        4,
        5
      ],
      "name": "SM_PaintingMilton"
    },
    {
      "mesh": 0,
      "name": "SM_PaintingMilton_M_FrameWood_0"
    },
    {
      "mesh": 1,
      "name": "SM_PaintingMilton_M_PaintingB_0"
    }
  ],
  "samplers": [
    {
      "magFilter": 9729,
      "minFilter": 9987,
      "wrapS": 10497,
      "wrapT": 10497
    }
  ],
  "scene": 0,
  "scenes": [
    {
      "name": "Sketchfab_Scene",
      "nodes": [
        0
      ]
    }
  ],
  "textures": [
    {
      "sampler": 0,
      "source": 0
    },
    {
      "sampler": 0,
      "source": 1
    },
    {
      "sampler": 0,
      "source": 2
    }
  ]
}
